<svg width="16" height="16" viewBox="0 0 16 16" fill="none" xmlns="http://www.w3.org/2000/svg">
<g clip-path="url(#clip0_1922_20445)">
<path fill-rule="evenodd" clip-rule="evenodd" d="M6 1C5.73478 1 5.48043 1.10536 5.29289 1.29289C5.10536 1.48043 5 1.73478 5 2V12C5 12.2652 5.10536 12.5196 5.29289 12.7071C5.48043 12.8946 5.73478 13 6 13H12C12.2652 13 12.5196 12.8946 12.7071 12.7071C12.8946 12.5196 13 12.2652 13 12V2C13 1.73478 12.8946 1.48043 12.7071 1.29289C12.5196 1.10536 12.2652 1 12 1H6ZM4 2C4 1.46957 4.21071 0.960859 4.58579 0.585786C4.96086 0.210714 5.46957 0 6 0L12 0C12.5304 0 13.0391 0.210714 13.4142 0.585786C13.7893 0.960859 14 1.46957 14 2V12C14 12.5304 13.7893 13.0391 13.4142 13.4142C13.0391 13.7893 12.5304 14 12 14H6C5.46957 14 4.96086 13.7893 4.58579 13.4142C4.21071 13.0391 4 12.5304 4 12V2Z" fill="#60CDFF"/>
<path d="M5.5 15.0003C4.83712 14.9998 4.20154 14.7362 3.73282 14.2675C3.26409 13.7988 3.00053 13.1632 3 12.5003V2.27832C2.69703 2.45254 2.44517 2.70333 2.26966 3.00555C2.09415 3.30778 2.00115 3.65083 2 4.00032V12.5003C2.00106 13.4283 2.37015 14.3179 3.0263 14.974C3.68244 15.6302 4.57207 15.9993 5.5 16.0003H10C10.3495 15.9992 10.6925 15.9062 10.9948 15.7307C11.297 15.5552 11.5478 15.3033 11.722 15.0003H5.5Z" fill="#E0DFDF"/>
</g>
<defs>
<clipPath id="clip0_1922_20445">
<rect width="16" height="16" fill="white"/>
</clipPath>
</defs>
</svg>
