<svg width="16" height="16" viewBox="0 0 16 16" fill="none" xmlns="http://www.w3.org/2000/svg">
<path d="M16 4C16 2.34315 14.6569 1 13 1H3C1.34315 1 0 2.34315 0 4V11C0 12.6569 1.34315 14 3 14H13C14.6569 14 16 12.6569 16 11V4ZM9.5 2V13H3C1.89543 13 1 12.1046 1 11V4C1 2.89543 1.89543 2 3 2H9.5ZM10.5 2H13C14.1046 2 15 2.89543 15 4V11C15 12.1046 14.1046 13 13 13H10.5V2Z" fill="#E0DFDF"/>
<path fill-rule="evenodd" clip-rule="evenodd" d="M13 1C14.6569 1 16 2.34315 16 4V11C16 12.6569 14.6569 14 13 14H9.5V13V2V1H13ZM10.5 2H13C14.1046 2 15 2.89543 15 4V11C15 12.1046 14.1046 13 13 13H10.5V2ZM14.25 5H11.25V6H14.25V5ZM14.25 7H11.25V8H14.25V7ZM14.25 9H11.25V10H14.25V9Z" fill="#60CDFF"/>
</svg>
