<svg width="5" height="8" viewBox="0 0 5 8" fill="none" xmlns="http://www.w3.org/2000/svg">
<path d="M0.00195312 7.49805C0.00195312 7.36133 0.0507812 7.24414 0.148438 7.14648L3.29492 4L0.148438 0.853516C0.0507812 0.755859 0.00195312 0.638672 0.00195312 0.501953C0.00195312 0.365234 0.0488281 0.248047 0.142578 0.150391C0.240234 0.0488281 0.359375 -0.00195312 0.5 -0.00195312C0.636719 -0.00195312 0.753906 0.046875 0.851562 0.144531L4.35547 3.64844C4.45312 3.74609 4.50195 3.86328 4.50195 4C4.50195 4.13672 4.45312 4.25391 4.35547 4.35156L0.851562 7.85547C0.753906 7.95312 0.636719 8.00195 0.5 8.00195C0.359375 8.00195 0.240234 7.95312 0.142578 7.85547C0.0488281 7.75391 0.00195312 7.63477 0.00195312 7.49805Z" fill="white" fill-opacity="0.786"/>
</svg>
