<svg width="16" height="16" viewBox="0 0 16 16" fill="none" xmlns="http://www.w3.org/2000/svg">
<path fill-rule="evenodd" clip-rule="evenodd" d="M3 3C2.73478 3 2.48043 3.10536 2.29289 3.29289C2.10536 3.48043 2 3.73478 2 4V13C2 13.2652 2.10536 13.5196 2.29289 13.7071C2.48043 13.8946 2.73478 14 3 14H12C12.2652 14 12.5196 13.8946 12.7071 13.7071C12.8946 13.5196 13 13.2652 13 13V11.5C13 11.3674 13.0527 11.2402 13.1464 11.1464C13.2402 11.0527 13.3674 11 13.5 11C13.6326 11 13.7598 11.0527 13.8536 11.1464C13.9473 11.2402 14 11.3674 14 11.5V13C14 13.5304 13.7893 14.0391 13.4142 14.4142C13.0391 14.7893 12.5304 15 12 15H3C2.46957 15 1.96086 14.7893 1.58579 14.4142C1.21071 14.0391 1 13.5304 1 13V4C1 3.46957 1.21071 2.96086 1.58579 2.58579C1.96086 2.21071 2.46957 2 3 2H6.5C6.63261 2 6.75979 2.05268 6.85355 2.14645C6.94732 2.24021 7 2.36739 7 2.5C7 2.63261 6.94732 2.75979 6.85355 2.85355C6.75979 2.94732 6.63261 3 6.5 3H3Z" fill="#E0DFDF"/>
<path fill-rule="evenodd" clip-rule="evenodd" d="M10.9518 10.8377L15.4488 6.41468L15.5068 6.34968C15.5911 6.23626 15.6316 6.09625 15.6209 5.95536C15.6103 5.81446 15.5492 5.68214 15.4488 5.58268L10.9518 1.16168L10.8898 1.10868C10.805 1.04766 10.7048 1.01151 10.6006 1.00428C10.4963 0.997045 10.3921 1.01902 10.2997 1.06774C10.2072 1.11646 10.1302 1.18998 10.0772 1.28006C10.0242 1.37014 9.99744 1.47321 9.99981 1.57768V3.70768L9.77581 3.72268C6.21481 4.00568 4.12781 6.25768 3.62781 10.3447C3.61534 10.4605 3.6384 10.5773 3.69391 10.6797C3.74942 10.7821 3.83477 10.8652 3.93861 10.9179C4.04245 10.9706 4.15988 10.9905 4.2753 10.975C4.39072 10.9594 4.49867 10.9091 4.58481 10.8307C5.82176 9.66623 7.34509 8.85023 8.99981 8.46568C9.24508 8.41458 9.49271 8.37554 9.74181 8.34868L9.99981 8.32568V10.4207L10.0048 10.5037C10.0173 10.6074 10.0585 10.7055 10.1239 10.7871C10.1892 10.8686 10.276 10.9302 10.3745 10.9649C10.4731 10.9997 10.5793 11.0061 10.6813 10.9837C10.7833 10.9612 10.877 10.9106 10.9518 10.8377ZM9.84981 4.71968L10.9998 4.64268V2.60968L14.4458 5.99768L10.9998 9.38968V7.23068L9.64381 7.35268H9.63581C7.87425 7.56697 6.20495 8.25932 4.80881 9.35468C5.01917 8.21874 5.52907 7.15958 6.28581 6.28668C7.22583 5.32278 8.50307 4.76105 9.84881 4.71968H9.84981Z" fill="#60CDFF"/>
</svg>
