<svg width="16" height="16" viewBox="0 0 16 16" fill="none" xmlns="http://www.w3.org/2000/svg">
<g clip-path="url(#clip0_1922_20457)">
<path d="M9 2.5H3C2.6717 2.5 2.34661 2.56466 2.04329 2.6903C1.73998 2.81594 1.46438 3.00009 1.23223 3.23223C0.763392 3.70107 0.5 4.33696 0.5 5V11C0.5 11.663 0.763392 12.2989 1.23223 12.7678C1.46438 12.9999 1.73998 13.1841 2.04329 13.3097C2.34661 13.4353 2.6717 13.5 3 13.5H9M12 2.5H13C13.663 2.5 14.2989 2.76339 14.7678 3.23223C15.2366 3.70107 15.5 4.33696 15.5 5V11C15.5 11.663 15.2366 12.2989 14.7678 12.7678C14.2989 13.2366 13.663 13.5 13 13.5H12" stroke="#E0DFDF"/>
<path d="M8.5 0.5H10.5M10.5 0.5H12.5M10.5 0.5V15.5M8.5 15.5H10.5M10.5 15.5H12.5" stroke="#60CDFF" stroke-linecap="round"/>
<path fill-rule="evenodd" clip-rule="evenodd" d="M5.4998 4C5.59565 3.99994 5.6895 4.02743 5.77017 4.0792C5.85084 4.13097 5.91493 4.20484 5.9548 4.292L8.7048 10.292C8.73212 10.3518 8.74739 10.4163 8.74976 10.482C8.75213 10.5476 8.74155 10.6131 8.71861 10.6747C8.69568 10.7362 8.66084 10.7927 8.61609 10.8408C8.57134 10.8889 8.51755 10.9277 8.4578 10.955C8.39805 10.9823 8.3335 10.9976 8.26785 11C8.20219 11.0023 8.13671 10.9917 8.07515 10.9688C8.01358 10.9459 7.95714 10.911 7.90903 10.8663C7.86093 10.8215 7.82212 10.7678 7.7948 10.708L7.1268 9.25H3.8728L3.2048 10.708C3.17749 10.7678 3.13867 10.8215 3.09057 10.8663C3.04247 10.911 2.98602 10.9459 2.92446 10.9688C2.86289 10.9917 2.79741 11.0023 2.73175 11C2.6661 10.9976 2.60155 10.9823 2.5418 10.955C2.48205 10.9277 2.42826 10.8889 2.38351 10.8408C2.33876 10.7927 2.30392 10.7362 2.28099 10.6747C2.25805 10.6131 2.24747 10.5476 2.24984 10.482C2.25221 10.4163 2.26749 10.3518 2.2948 10.292L5.0448 4.292C5.08478 4.20491 5.14889 4.13111 5.22953 4.07936C5.31018 4.0276 5.40398 4.00006 5.4998 4ZM5.4998 5.7L4.3308 8.25H6.6698L5.4998 5.7Z" fill="#60CDFF"/>
</g>
<defs>
<clipPath id="clip0_1922_20457">
<rect width="16" height="16" fill="white"/>
</clipPath>
</defs>
</svg>
