<svg width="16" height="16" viewBox="0 0 16 16" fill="none" xmlns="http://www.w3.org/2000/svg">
<g clip-path="url(#clip0_1922_20475)">
<path fill-rule="evenodd" clip-rule="evenodd" d="M11.5 2C11.6326 2 11.7598 2.05268 11.8536 2.14645C11.9473 2.24021 12 2.36739 12 2.5V13.5C12 13.6326 11.9473 13.7598 11.8536 13.8536C11.7598 13.9473 11.6326 14 11.5 14C11.3674 14 11.2402 13.9473 11.1464 13.8536C11.0527 13.7598 11 13.6326 11 13.5V2.5C11 2.36739 11.0527 2.24021 11.1464 2.14645C11.2402 2.05268 11.3674 2 11.5 2Z" fill="#60CDFF"/>
<path fill-rule="evenodd" clip-rule="evenodd" d="M7.14592 9.14592C7.19236 9.09935 7.24754 9.06241 7.30828 9.0372C7.36903 9.012 7.43415 8.99902 7.49992 8.99902C7.56568 8.99902 7.63081 9.012 7.69155 9.0372C7.7523 9.06241 7.80747 9.09935 7.85392 9.14592L11.4999 12.7929L15.1459 9.14592C15.2398 9.05203 15.3671 8.99929 15.4999 8.99929C15.6327 8.99929 15.76 9.05203 15.8539 9.14592C15.9478 9.2398 16.0005 9.36714 16.0005 9.49992C16.0005 9.63269 15.9478 9.76003 15.8539 9.85392L11.8539 13.8539C11.8075 13.9005 11.7523 13.9374 11.6916 13.9626C11.6308 13.9878 11.5657 14.0008 11.4999 14.0008C11.4341 14.0008 11.369 13.9878 11.3083 13.9626C11.2475 13.9374 11.1924 13.9005 11.1459 13.8539L7.14592 9.85392C7.09935 9.80747 7.06241 9.7523 7.0372 9.69155C7.012 9.63081 6.99902 9.56568 6.99902 9.49992C6.99902 9.43415 7.012 9.36903 7.0372 9.30828C7.06241 9.24754 7.09935 9.19236 7.14592 9.14592Z" fill="#60CDFF"/>
<path fill-rule="evenodd" clip-rule="evenodd" d="M4.5 2C4.63261 2 4.75979 2.05268 4.85355 2.14645C4.94732 2.24021 5 2.36739 5 2.5V13.5C5 13.6326 4.94732 13.7598 4.85355 13.8536C4.75979 13.9473 4.63261 14 4.5 14C4.36739 14 4.24021 13.9473 4.14645 13.8536C4.05268 13.7598 4 13.6326 4 13.5V2.5C4 2.36739 4.05268 2.24021 4.14645 2.14645C4.24021 2.05268 4.36739 2 4.5 2Z" fill="#E0DFDF"/>
<path fill-rule="evenodd" clip-rule="evenodd" d="M4.14614 2.14592C4.19259 2.09935 4.24776 2.06241 4.30851 2.0372C4.36926 2.012 4.43438 1.99902 4.50014 1.99902C4.56591 1.99902 4.63103 2.012 4.69178 2.0372C4.75252 2.06241 4.8077 2.09935 4.85414 2.14592L8.85414 6.14592C8.90063 6.1924 8.93751 6.24759 8.96267 6.30833C8.98783 6.36907 9.00077 6.43417 9.00077 6.49992C9.00077 6.56566 8.98783 6.63076 8.96267 6.6915C8.93751 6.75224 8.90063 6.80743 8.85414 6.85392C8.80766 6.9004 8.75247 6.93728 8.69173 6.96244C8.63099 6.9876 8.56589 7.00055 8.50014 7.00055C8.4344 7.00055 8.3693 6.9876 8.30856 6.96244C8.24782 6.93728 8.19263 6.9004 8.14614 6.85392L4.50014 3.20692L0.854143 6.85392C0.807655 6.9004 0.752466 6.93728 0.691727 6.96244C0.630987 6.9876 0.565887 7.00055 0.500143 7.00055C0.434399 7.00055 0.369299 6.9876 0.30856 6.96244C0.24782 6.93728 0.192631 6.9004 0.146143 6.85392C0.0996554 6.80743 0.0627791 6.75224 0.03762 6.6915C0.0124609 6.63076 -0.000488282 6.56566 -0.000488281 6.49992C-0.00048828 6.43417 0.0124609 6.36907 0.03762 6.30833C0.0627791 6.24759 0.0996554 6.1924 0.146143 6.14592L4.14614 2.14592Z" fill="#E0DFDF"/>
</g>
<defs>
<clipPath id="clip0_1922_20475">
<rect width="16" height="16" fill="white"/>
</clipPath>
</defs>
</svg>
