<svg width="8" height="8" viewBox="0 0 8 8" fill="none" xmlns="http://www.w3.org/2000/svg">
<path d="M4 4.70898L0.853516 7.85547C0.755859 7.95312 0.638672 8.00195 0.501953 8.00195C0.361328 8.00195 0.242188 7.95312 0.144531 7.85547C0.046875 7.75781 -0.00195312 7.63867 -0.00195312 7.49805C-0.00195312 7.36133 0.046875 7.24414 0.144531 7.14648L3.29102 4L0.144531 0.853516C0.046875 0.755859 -0.00195312 0.636719 -0.00195312 0.496094C-0.00195312 0.425781 0.0117188 0.361328 0.0390625 0.302734C0.0664062 0.240234 0.101562 0.1875 0.144531 0.144531C0.191406 0.0976562 0.244141 0.0625 0.302734 0.0390625C0.365234 0.0117188 0.431641 -0.00195312 0.501953 -0.00195312C0.638672 -0.00195312 0.755859 0.046875 0.853516 0.144531L4 3.29102L7.14648 0.144531C7.24414 0.046875 7.36133 -0.00195312 7.49805 -0.00195312C7.63867 -0.00195312 7.75781 0.046875 7.85547 0.144531C7.95312 0.242188 8.00195 0.361328 8.00195 0.501953C8.00195 0.638672 7.95312 0.755859 7.85547 0.853516L4.70898 4L7.85547 7.14648C7.95312 7.24414 8.00195 7.36328 8.00195 7.50391C8.00195 7.57422 7.98828 7.64062 7.96094 7.70312C7.93359 7.76172 7.89648 7.81445 7.84961 7.86133C7.80664 7.9043 7.75391 7.93945 7.69141 7.9668C7.63281 7.99023 7.56836 8.00195 7.49805 8.00195C7.36133 8.00195 7.24414 7.95312 7.14648 7.85547L4 4.70898Z" fill="white"/>
</svg>
